<svg width="25" height="24" viewBox="0 0 25 24" fill="none" xmlns="http://www.w3.org/2000/svg">
<path d="M4.66666 20C4.11666 20 3.64582 19.8042 3.25416 19.4125C2.86249 19.0208 2.66666 18.55 2.66666 18V6C2.66666 5.45 2.86249 4.97917 3.25416 4.5875C3.64582 4.19583 4.11666 4 4.66666 4H20.6667C21.2167 4 21.6875 4.19583 22.0792 4.5875C22.4708 4.97917 22.6667 5.45 22.6667 6V11.175C22.6667 11.4083 22.5875 11.6042 22.4292 11.7625C22.2708 11.9208 22.075 12 21.8417 12C21.3417 12 20.85 12.0458 20.3667 12.1375C19.8833 12.2292 19.4667 12.45 19.1167 12.8L15.6167 16.325L14.8667 15.6C14.2833 15.0167 13.5833 14.7292 12.7667 14.7375C11.95 14.7458 11.25 15.0417 10.6667 15.625C10.1333 16.1583 9.83749 16.7375 9.77916 17.3625C9.72082 17.9875 9.84999 18.5917 10.1667 19.175C10.2667 19.3583 10.2708 19.5417 10.1792 19.725C10.0875 19.9083 9.94999 20 9.76666 20H4.66666ZM4.66666 8V12H20.6667V8H4.66666ZM15.6167 19.15L20.5417 14.225C20.7417 14.025 20.9792 13.9292 21.2542 13.9375C21.5292 13.9458 21.7667 14.05 21.9667 14.25C22.15 14.45 22.2458 14.6833 22.2542 14.95C22.2625 15.2167 22.1667 15.45 21.9667 15.65L16.3167 21.3C16.2167 21.4 16.1083 21.475 15.9917 21.525C15.875 21.575 15.75 21.6 15.6167 21.6C15.4833 21.6 15.3583 21.575 15.2417 21.525C15.125 21.475 15.0167 21.4 14.9167 21.3L12.0667 18.45C11.8833 18.2667 11.7875 18.0375 11.7792 17.7625C11.7708 17.4875 11.8667 17.25 12.0667 17.05C12.25 16.8667 12.4792 16.775 12.7542 16.775C13.0292 16.775 13.2667 16.8667 13.4667 17.05L15.6167 19.15Z" fill="#00BF2B"/>
</svg>
