<svg width="25" height="24" viewBox="0 0 25 24" fill="none" xmlns="http://www.w3.org/2000/svg">
<path d="M18.8334 16.8V14.5C18.8334 14.3667 18.7834 14.25 18.6834 14.15C18.5834 14.05 18.4667 14 18.3334 14C18.2 14 18.0834 14.05 17.9834 14.15C17.8834 14.25 17.8334 14.3667 17.8334 14.5V16.775C17.8334 16.9083 17.8584 17.0375 17.9084 17.1625C17.9584 17.2875 18.0334 17.4 18.1334 17.5L19.6584 19.025C19.7584 19.125 19.875 19.175 20.0084 19.175C20.1417 19.175 20.2584 19.125 20.3584 19.025C20.4584 18.925 20.5084 18.8083 20.5084 18.675C20.5084 18.5417 20.4584 18.425 20.3584 18.325L18.8334 16.8ZM18.3584 22C16.9584 22 15.7709 21.5167 14.7959 20.55C13.8209 19.5833 13.3334 18.4 13.3334 17C13.3334 15.6 13.8209 14.4167 14.7959 13.45C15.7709 12.4833 16.9584 12 18.3584 12C19.7417 12 20.9167 12.4875 21.8834 13.4625C22.85 14.4375 23.3334 15.6167 23.3334 17C23.3334 18.3833 22.85 19.5625 21.8834 20.5375C20.9167 21.5125 19.7417 22 18.3584 22ZM4.33337 20C3.78337 20 3.31254 19.8042 2.92087 19.4125C2.52921 19.0208 2.33337 18.55 2.33337 18V6C2.33337 5.45 2.52921 4.97917 2.92087 4.5875C3.31254 4.19583 3.78337 4 4.33337 4H20.3334C20.8834 4 21.3542 4.19583 21.7459 4.5875C22.1375 4.97917 22.3334 5.45 22.3334 6V9.825C22.3334 10.1083 22.2375 10.3458 22.0459 10.5375C21.8542 10.7292 21.6167 10.825 21.3334 10.825C21.05 10.825 20.8125 10.7292 20.6209 10.5375C20.4292 10.3458 20.3334 10.1083 20.3334 9.825V8H4.33337V12H11.8334C12.1167 12 12.325 12.1333 12.4584 12.4C12.5917 12.6667 12.5667 12.925 12.3834 13.175C12.0167 13.725 11.7334 14.325 11.5334 14.975C11.3334 15.625 11.2334 16.3 11.2334 17C11.2334 17.3167 11.2542 17.6292 11.2959 17.9375C11.3375 18.2458 11.4 18.5417 11.4834 18.825C11.5667 19.1083 11.5209 19.375 11.3459 19.625C11.1709 19.875 10.9417 20 10.6584 20H4.33337Z" fill="#CC9A06"/>
</svg>