<svg width="25" height="24" viewBox="0 0 25 24" fill="none" xmlns="http://www.w3.org/2000/svg">
<path d="M7.83337 11C6.86671 11 6.04171 10.6583 5.35837 9.975C4.67504 9.29167 4.33337 8.46667 4.33337 7.5C4.33337 6.53333 4.67504 5.70833 5.35837 5.025C6.04171 4.34167 6.86671 4 7.83337 4C8.80004 4 9.62504 4.34167 10.3084 5.025C10.9917 5.70833 11.3334 6.53333 11.3334 7.5C11.3334 8.46667 10.9917 9.29167 10.3084 9.975C9.62504 10.6583 8.80004 11 7.83337 11ZM7.83337 9C8.25004 9 8.60421 8.85417 8.89587 8.5625C9.18754 8.27083 9.33337 7.91667 9.33337 7.5C9.33337 7.08333 9.18754 6.72917 8.89587 6.4375C8.60421 6.14583 8.25004 6 7.83337 6C7.41671 6 7.06254 6.14583 6.77087 6.4375C6.47921 6.72917 6.33337 7.08333 6.33337 7.5C6.33337 7.91667 6.47921 8.27083 6.77087 8.5625C7.06254 8.85417 7.41671 9 7.83337 9ZM16.8334 20C15.8667 20 15.0417 19.6583 14.3584 18.975C13.675 18.2917 13.3334 17.4667 13.3334 16.5C13.3334 15.5333 13.675 14.7083 14.3584 14.025C15.0417 13.3417 15.8667 13 16.8334 13C17.8 13 18.625 13.3417 19.3084 14.025C19.9917 14.7083 20.3334 15.5333 20.3334 16.5C20.3334 17.4667 19.9917 18.2917 19.3084 18.975C18.625 19.6583 17.8 20 16.8334 20ZM16.8334 18C17.25 18 17.6042 17.8542 17.8959 17.5625C18.1875 17.2708 18.3334 16.9167 18.3334 16.5C18.3334 16.0833 18.1875 15.7292 17.8959 15.4375C17.6042 15.1458 17.25 15 16.8334 15C16.4167 15 16.0625 15.1458 15.7709 15.4375C15.4792 15.7292 15.3334 16.0833 15.3334 16.5C15.3334 16.9167 15.4792 17.2708 15.7709 17.5625C16.0625 17.8542 16.4167 18 16.8334 18ZM5.03337 19.3C4.85004 19.1167 4.75837 18.8833 4.75837 18.6C4.75837 18.3167 4.85004 18.0833 5.03337 17.9L18.2334 4.7C18.4167 4.51667 18.65 4.425 18.9334 4.425C19.2167 4.425 19.45 4.51667 19.6334 4.7C19.8167 4.88333 19.9084 5.11667 19.9084 5.4C19.9084 5.68333 19.8167 5.91667 19.6334 6.1L6.43337 19.3C6.25004 19.4833 6.01671 19.575 5.73337 19.575C5.45004 19.575 5.21671 19.4833 5.03337 19.3Z" fill="#1B8598"/>
</svg>
